<?xml version="1.0" encoding="utf-8"?>
<!-- Generator: Adobe Illustrator 20.1.0, SVG Export Plug-In . SVG Version: 6.00 Build 0)  -->
<svg version="1.1" id="Layer_1" xmlns="http://www.w3.org/2000/svg" xmlns:xlink="http://www.w3.org/1999/xlink" x="0px" y="0px"
	 viewBox="0 0 250 15.5" style="enable-background:new 0 0 250 15.5;" xml:space="preserve">
<style type="text/css">
	.st0{fill:#FFFFFF;}
</style>
<g>
	<path class="st0" d="M5.5,2.2c0.7,0,1.5,0.2,2.3,0.7c0.7,0.4,1.3,1,1.7,1.8S10,6.1,10,7S9.8,8.7,9.4,9.4c-0.4,0.8-0.9,1.3-1.6,1.8
		c-0.7,0.4-1.4,0.7-2.3,0.7S4,11.6,3.3,11.2c-0.7-0.4-1.2-1-1.6-1.8C1.2,8.7,1,7.9,1,7s0.2-1.6,0.6-2.4s0.9-1.4,1.7-1.8
		S4.8,2.2,5.5,2.2z M5.5,2.9c-0.6,0-1.2,0.2-1.8,0.5S2.6,4.4,2.2,5S1.7,6.3,1.7,7s0.2,1.3,0.5,2c0.3,0.7,0.8,1.1,1.4,1.5
		s1.2,0.5,1.8,0.5s1.2-0.2,1.8-0.5s1-0.9,1.4-1.5c0.4-0.7,0.5-1.3,0.5-2S9.1,5.6,8.8,5S8,3.9,7.3,3.5S6.1,2.9,5.5,2.9z M6.9,7.8
		L7.7,8C7.6,8.5,7.2,9,6.9,9.3S6.1,9.8,5.5,9.8c-0.7,0-1.2-0.2-1.7-0.7C3.3,8.7,3.1,7.9,3.1,7c0-0.5,0.1-1.1,0.3-1.4s0.5-0.8,0.8-1
		c0.3-0.2,0.8-0.3,1.2-0.3c0.5,0,1,0.1,1.3,0.4C7.1,5,7.4,5.4,7.6,5.8L6.9,6C6.8,5.7,6.6,5.5,6.4,5.2S5.9,5,5.5,5
		C5.1,5,4.7,5.1,4.4,5.6C4.1,6,4,6.3,4,7s0.1,1.1,0.4,1.5C4.7,9,5,9.1,5.5,9.1c0.4,0,0.7-0.1,0.9-0.3C6.6,8.5,6.8,8.2,6.9,7.8z"/>
	<path class="st0" d="M16.3,10.6v1.1h-5.8c0-0.3,0-0.5,0.1-0.8c0.1-0.4,0.4-0.9,0.7-1.2s0.8-0.9,1.4-1.4c0.9-0.9,1.6-1.5,1.9-2
		c0.3-0.4,0.5-1,0.5-1.4c0-0.4-0.1-0.9-0.4-1.2c-0.3-0.3-0.7-0.4-1.2-0.4c-0.5,0-0.9,0.2-1.2,0.5s-0.5,0.7-0.5,1.3L10.6,5
		c0.1-0.9,0.4-1.5,0.8-2s1.1-0.7,2-0.7c0.8,0,1.5,0.2,2,0.8s0.7,1.1,0.7,1.9c0,0.3-0.1,0.8-0.2,1.1c-0.1,0.3-0.4,0.8-0.7,1.1
		c-0.3,0.3-0.9,1-1.6,1.6c-0.6,0.5-1,1-1.2,1.2c-0.2,0.2-0.4,0.3-0.6,0.5H16.3z"/>
	<path class="st0" d="M17.4,7.1c0-1.1,0.1-2,0.3-2.7c0.2-0.8,0.5-1.2,0.9-1.5c0.4-0.3,0.9-0.5,1.6-0.5c0.5,0,0.9,0.1,1.2,0.3
		c0.3,0.2,0.6,0.5,0.9,0.9c0.3,0.3,0.4,0.9,0.5,1.4c0.1,0.5,0.2,1.3,0.2,2.2c0,1.1-0.1,2-0.3,2.6s-0.5,1.2-0.9,1.5
		c-0.4,0.3-0.9,0.5-1.6,0.5c-0.8,0-1.5-0.3-2-1C17.7,10.2,17.4,8.9,17.4,7.1z M18.5,7.1c0,1.5,0.2,2.5,0.5,3.1s0.7,0.8,1.2,0.8
		s0.9-0.2,1.2-0.8S22,8.7,22,7.1S21.8,4.5,21.5,4c-0.3-0.4-0.7-0.8-1.2-0.8S19.3,3.5,19,3.9C18.7,4.5,18.5,5.6,18.5,7.1z"/>
	<path class="st0" d="M28.2,11.7h-1.1V4.4c-0.3,0.2-0.6,0.5-1,0.8c-0.4,0.2-0.7,0.4-1,0.7V4.7c0.6-0.3,1.1-0.7,1.5-1.1
		c0.4-0.4,0.8-0.9,0.9-1.2h0.7C28.2,2.4,28.2,11.7,28.2,11.7z"/>
	<path class="st0" d="M31.1,3.6V2.5h5.7v0.9c-0.5,0.7-1.1,1.5-1.6,2.5s-1,2.2-1.2,3.3c-0.2,0.8-0.3,1.6-0.4,2.6h-1.1
		c0-0.8,0.1-1.6,0.4-2.6c0.3-1,0.6-2.1,1.1-3.1s1-1.8,1.5-2.4h-4.4V3.6z"/>
	<path class="st0" d="M47.5,2.3h1.1v5.5c0,1-0.1,1.6-0.3,2.3s-0.5,1-1.1,1.3c-0.6,0.3-1.2,0.5-2,0.5c-0.8,0-1.5-0.1-2-0.4
		c-0.5-0.3-0.9-0.8-1.1-1.3s-0.2-1.4-0.2-2.4V2.3h1.1v5.5c0,0.8,0.1,1.4,0.2,1.8s0.4,0.7,0.7,0.9c0.3,0.2,0.8,0.3,1.2,0.3
		c0.8,0,1.4-0.2,1.8-0.7c0.4-0.4,0.5-1.2,0.5-2.4V2.3H47.5z"/>
	<path class="st0" d="M50.4,11.7V4.9h0.9v1c0.5-0.8,1.1-1.1,2-1.1c0.4,0,0.7,0.1,1,0.2c0.3,0.1,0.5,0.3,0.7,0.5s0.3,0.5,0.3,0.9
		c0,0.2,0.1,0.5,0.1,1.1v4.2h-1.1V7.6c0-0.4,0-0.9-0.1-1.1c-0.1-0.2-0.2-0.4-0.4-0.5c-0.2-0.1-0.5-0.2-0.7-0.2
		c-0.4,0-0.8,0.1-1.2,0.4c-0.4,0.3-0.5,0.9-0.5,1.8v3.8H50.4z"/>
	<path class="st0" d="M57.3,3.6V2.3h1.1v1.3C58.4,3.6,57.3,3.6,57.3,3.6z M57.3,11.7V4.9h1.1v6.8H57.3z"/>
	<path class="st0" d="M62.3,10.7l0.2,1c-0.3,0.1-0.6,0.1-0.8,0.1c-0.4,0-0.7-0.1-0.9-0.2c-0.2-0.1-0.4-0.3-0.4-0.5
		c0-0.2-0.2-0.7-0.2-1.3v-4h-0.8V4.9h0.8V3.3l1-0.7V5h1.1v0.9h-1.1v4c0,0.3,0,0.5,0.1,0.7c0.1,0.1,0.1,0.2,0.2,0.2
		c0.1,0.1,0.2,0.1,0.4,0.1C62,10.7,62.2,10.7,62.3,10.7z"/>
	<path class="st0" d="M67.7,9.5l1.1,0.1c-0.2,0.7-0.5,1.2-1,1.6c-0.5,0.4-1.1,0.5-1.8,0.5c-0.9,0-1.6-0.3-2.3-0.9
		C63.1,10.4,63,9.5,63,8.4s0.3-2.1,0.8-2.6c0.5-0.5,1.2-1,2.1-1c0.8,0,1.5,0.3,2,0.9c0.5,0.5,0.8,1.5,0.8,2.6c0,0.1,0,0.2,0,0.3
		h-4.7c0,0.8,0.2,1.3,0.6,1.8c0.4,0.4,0.8,0.5,1.3,0.5c0.4,0,0.7-0.1,1-0.3S67.6,10.1,67.7,9.5z M64.3,7.7h3.6c0-0.5-0.2-1-0.4-1.3
		c-0.3-0.4-0.8-0.7-1.3-0.7c-0.5,0-0.9,0.2-1.2,0.5C64.6,6.6,64.3,7.1,64.3,7.7z"/>
	<path class="st0" d="M74.4,11.7v-0.9c-0.4,0.7-1,1-1.7,1c-0.5,0-1-0.1-1.4-0.4c-0.4-0.3-0.7-0.8-1-1.2c-0.3-0.4-0.3-1.2-0.3-1.9
		c0-0.7,0.1-1.3,0.3-1.9c0.2-0.5,0.5-1,0.9-1.3c0.4-0.3,0.9-0.4,1.4-0.4c0.4,0,0.7,0.1,1,0.2c0.3,0.1,0.5,0.4,0.7,0.7V2.3h1v9.5
		H74.4z M71,8.3c0,0.9,0.2,1.5,0.5,2c0.3,0.4,0.7,0.7,1.2,0.7c0.5,0,0.9-0.2,1.2-0.7c0.3-0.4,0.5-1.1,0.5-1.9c0-1-0.2-1.6-0.5-2.1
		c-0.3-0.4-0.7-0.7-1.2-0.7c-0.5,0-0.9,0.2-1.2,0.7C71.2,6.8,71,7.4,71,8.3z"/>
	<path class="st0" d="M79,11.7l3.4-9.5h1.2l3.6,9.5h-1.3l-1-2.9h-3.7l-0.9,2.9H79z M81.6,7.9h3l-0.9-2.6c-0.3-0.8-0.5-1.4-0.6-2
		c-0.1,0.7-0.3,1.2-0.5,1.9L81.6,7.9z"/>
	<path class="st0" d="M88,3.6V2.3h1.1v1.3C89.1,3.6,88,3.6,88,3.6z M88,11.7V4.9h1.1v6.8H88z"/>
	<path class="st0" d="M90.8,11.7V4.9h0.9v1c0.2-0.4,0.5-0.8,0.7-0.9c0.2-0.1,0.4-0.2,0.7-0.2c0.4,0,0.7,0.1,1.1,0.3l-0.4,1.1
		C93.5,6,93.3,6,93,6c-0.2,0-0.4,0.1-0.6,0.2c-0.2,0.1-0.3,0.3-0.4,0.7c-0.1,0.4-0.2,0.9-0.2,1.3v3.5H90.8z"/>
	<path class="st0" d="M94.8,11.7V2.3h1.1v9.5H94.8z"/>
	<path class="st0" d="M97.5,3.6V2.3h1.1v1.3C98.7,3.6,97.5,3.6,97.5,3.6z M97.5,11.7V4.9h1.1v6.8H97.5z"/>
	<path class="st0" d="M100.3,11.7V4.9h0.9v1c0.5-0.8,1.1-1.1,2-1.1c0.4,0,0.7,0.1,1,0.2c0.3,0.1,0.5,0.3,0.7,0.5
		c0.2,0.2,0.3,0.5,0.3,0.9c0,0.2,0.1,0.5,0.1,1.1v4.2h-1.1V7.6c0-0.4,0-0.9-0.1-1.1S104,6,103.8,5.9c-0.2-0.1-0.5-0.2-0.7-0.2
		c-0.4,0-0.8,0.1-1.2,0.4c-0.4,0.3-0.5,0.9-0.5,1.8v3.8H100.3z"/>
	<path class="st0" d="M111.5,9.5l1.1,0.1c-0.2,0.7-0.5,1.2-1,1.6c-0.5,0.4-1.1,0.5-1.8,0.5c-0.9,0-1.6-0.3-2.3-0.9
		c-0.6-0.5-0.7-1.4-0.7-2.5s0.3-2.1,0.8-2.6c0.5-0.5,1.2-1,2.1-1c0.8,0,1.5,0.3,2,0.9c0.5,0.5,0.8,1.5,0.8,2.6c0,0.1,0,0.2,0,0.3
		h-4.7c0,0.8,0.2,1.3,0.6,1.8c0.4,0.4,0.8,0.5,1.3,0.5c0.4,0,0.7-0.1,1-0.3C111.2,10.4,111.4,10.1,111.5,9.5z M108,7.7h3.6
		c0-0.5-0.2-1-0.4-1.3c-0.3-0.4-0.8-0.7-1.3-0.7c-0.5,0-0.9,0.2-1.2,0.5C108.3,6.6,108,7.1,108,7.7z"/>
	<path class="st0" d="M113.5,9.8l1-0.2c0.1,0.4,0.2,0.8,0.5,1.1s0.6,0.3,1.1,0.3c0.5,0,0.8-0.1,1.1-0.3s0.4-0.4,0.4-0.8
		c0-0.2-0.1-0.4-0.3-0.7c-0.1-0.1-0.5-0.2-1.1-0.4c-0.8-0.2-1.3-0.4-1.6-0.5c-0.3-0.1-0.5-0.3-0.7-0.7c-0.2-0.3-0.2-0.5-0.2-0.9
		s0.1-0.5,0.2-0.9s0.3-0.4,0.5-0.7c0.2-0.1,0.4-0.2,0.7-0.3c0.3-0.1,0.6-0.1,0.9-0.1c0.5,0,0.9,0.1,1.3,0.2c0.4,0.1,0.6,0.3,0.8,0.7
		s0.3,0.7,0.4,1.1l-1,0.1c0-0.3-0.2-0.7-0.4-0.9c-0.2-0.2-0.5-0.3-1-0.3c-0.5,0-0.8,0.1-1,0.2c-0.2,0.1-0.3,0.3-0.3,0.7
		c0,0.1,0,0.3,0.1,0.4s0.2,0.2,0.4,0.3c0.1,0,0.4,0.1,0.9,0.3c0.7,0.2,1.3,0.4,1.6,0.5c0.3,0.1,0.5,0.3,0.7,0.7
		c0.2,0.3,0.3,0.5,0.3,1s-0.1,0.8-0.3,1.1c-0.2,0.3-0.5,0.7-0.9,0.8c-0.4,0.1-0.8,0.3-1.3,0.3c-0.8,0-1.4-0.2-1.8-0.5
		C114.1,11.1,113.6,10.4,113.5,9.8z"/>
	<path class="st0" d="M120.4,11.7v-1.3h1.2v1.3c0,0.4-0.1,0.9-0.2,1.2s-0.4,0.5-0.7,0.7l-0.3-0.5c0.2-0.1,0.4-0.2,0.5-0.4
		s0.2-0.5,0.2-0.9C121.1,11.7,120.4,11.7,120.4,11.7z"/>
	<path class="st0" d="M127.2,11.7V2.3h1.1v9.5H127.2z"/>
	<path class="st0" d="M130.3,11.7V4.9h0.9v1c0.5-0.8,1.1-1.1,2-1.1c0.4,0,0.7,0.1,1,0.2c0.3,0.1,0.5,0.3,0.7,0.5s0.3,0.5,0.3,0.9
		c0,0.2,0.1,0.5,0.1,1.1v4.2h-1.1V7.6c0-0.4,0-0.9-0.1-1.1c-0.1-0.2-0.2-0.4-0.4-0.5s-0.5-0.2-0.7-0.2c-0.4,0-0.8,0.1-1.2,0.4
		c-0.4,0.3-0.5,0.9-0.5,1.8v3.8H130.3z"/>
	<path class="st0" d="M141.4,9.2l1,0.1c-0.1,0.8-0.4,1.4-0.9,1.9c-0.5,0.4-1,0.7-1.7,0.7c-0.9,0-1.5-0.3-2.1-0.9
		c-0.6-0.5-0.8-1.5-0.8-2.6c0-0.8,0.1-1.4,0.3-2s0.6-1,1-1.2c0.4-0.2,1-0.4,1.5-0.4c0.7,0,1.2,0.2,1.7,0.5c0.5,0.3,0.7,0.9,0.8,1.6
		l-1,0.2c-0.1-0.4-0.3-0.8-0.5-1c-0.2-0.2-0.5-0.3-0.9-0.3c-0.5,0-1,0.2-1.3,0.7c-0.3,0.4-0.5,1.1-0.5,2c0,0.9,0.2,1.5,0.5,2
		c0.3,0.4,0.7,0.7,1.3,0.7c0.4,0,0.8-0.1,1-0.4S141.3,9.9,141.4,9.2z"/>
	<path class="st0" d="M143.6,11.7v-1.3h1.2v1.3H143.6z"/>
	<path class="st0" d="M148.6,11.7l3.4-9.5h1.2l3.6,9.5h-1.3l-1-2.9h-3.7l-0.9,2.9H148.6z M151.2,7.9h3l-0.9-2.6
		c-0.3-0.8-0.5-1.4-0.6-2c-0.1,0.7-0.3,1.2-0.5,1.8L151.2,7.9z"/>
	<path class="st0" d="M157.6,11.7V2.3h1.1v9.5H157.6z"/>
	<path class="st0" d="M160.4,11.7V2.3h1.1v9.5H160.4z"/>
	<path class="st0" d="M166.5,11.7V4.9h0.9v1c0.2-0.4,0.5-0.8,0.7-1c0.2-0.2,0.4-0.2,0.7-0.2c0.4,0,0.7,0.1,1.1,0.3l-0.4,1.1
		c-0.3-0.2-0.5-0.2-0.8-0.2c-0.2,0-0.4,0.1-0.6,0.2c-0.2,0.1-0.3,0.3-0.4,0.7c-0.1,0.4-0.2,0.9-0.2,1.3v3.6H166.5z"/>
	<path class="st0" d="M170.6,3.6V2.3h1.1v1.3C171.8,3.6,170.6,3.6,170.6,3.6z M170.6,11.7V4.9h1.1v6.8H170.6z"/>
	<path class="st0" d="M173.2,12.3l1,0.2c0,0.3,0.2,0.5,0.4,0.8c0.3,0.2,0.6,0.3,1.1,0.3s0.9-0.1,1.1-0.3c0.2-0.2,0.4-0.5,0.5-0.9
		c0.1-0.2,0.1-0.8,0.1-1.5c-0.5,0.5-1,0.9-1.7,0.9c-0.9,0-1.5-0.3-2-1c-0.5-0.7-0.7-1.5-0.7-2.4c0-0.7,0.1-1.2,0.3-1.8
		s0.5-1,0.9-1.3c0.4-0.3,0.9-0.4,1.4-0.4c0.7,0,1.3,0.3,1.8,1V4.9h1v5.9c0,1.1-0.1,1.9-0.3,2.3s-0.5,0.8-0.9,1.1s-1,0.4-1.6,0.4
		c-0.7,0-1.3-0.2-1.8-0.5C173.3,13.8,173.1,13.1,173.2,12.3z M174,8.2c0,0.9,0.2,1.5,0.5,2c0.3,0.4,0.7,0.7,1.2,0.7s0.9-0.2,1.2-0.7
		c0.3-0.4,0.5-1.1,0.5-2c0-0.9-0.2-1.4-0.5-1.9c-0.3-0.4-0.7-0.7-1.2-0.7s-0.9,0.2-1.2,0.7C174.2,6.8,174,7.3,174,8.2z"/>
	<path class="st0" d="M180.2,11.7V2.3h1.1v3.4c0.5-0.7,1.1-1,1.9-1c0.5,0,0.9,0.1,1.2,0.3c0.3,0.2,0.6,0.4,0.7,0.9
		c0.1,0.4,0.2,0.9,0.2,1.5v4.3h-1.1V7.4c0-0.5-0.1-1-0.3-1.3c-0.2-0.3-0.6-0.4-1-0.4c-0.3,0-0.6,0.1-0.9,0.2
		c-0.3,0.1-0.5,0.4-0.6,0.8c-0.1,0.3-0.2,0.8-0.2,1.2v3.8H180.2z"/>
	<path class="st0" d="M189.4,10.7l0.2,1c-0.3,0.1-0.6,0.1-0.8,0.1c-0.4,0-0.7-0.1-0.9-0.2s-0.4-0.3-0.4-0.5c0-0.2-0.1-0.7-0.1-1.3
		v-4h-0.8V4.9h0.8V3.3l1-0.7V5h1.1v0.9h-1.1v4c0,0.3,0,0.5,0.1,0.7c0.1,0.1,0.1,0.2,0.2,0.2c0.1,0.1,0.2,0.1,0.4,0.1
		C189.1,10.7,189.2,10.7,189.4,10.7z"/>
	<path class="st0" d="M190,9.8l1-0.2c0.1,0.4,0.2,0.8,0.5,1.1c0.3,0.3,0.6,0.3,1.1,0.3c0.5,0,0.8-0.1,1.1-0.3
		c0.3-0.2,0.4-0.4,0.4-0.8c0-0.2-0.1-0.4-0.3-0.7c-0.1-0.1-0.5-0.2-1.1-0.4c-0.8-0.2-1.3-0.4-1.6-0.5c-0.3-0.1-0.5-0.3-0.7-0.7
		c-0.2-0.3-0.2-0.4-0.2-0.9c0-0.3,0.1-0.5,0.2-0.9c0.1-0.3,0.3-0.4,0.5-0.7c0.2-0.1,0.4-0.2,0.7-0.3c0.3-0.1,0.6-0.1,0.9-0.1
		c0.5,0,0.9,0.1,1.3,0.2c0.4,0.1,0.6,0.3,0.8,0.7c0.2,0.3,0.3,0.7,0.4,1.1l-1,0.1c0-0.3-0.2-0.7-0.4-0.9c-0.2-0.2-0.5-0.3-1-0.3
		c-0.5,0-0.8,0.1-1,0.2c-0.2,0.1-0.4,0.5-0.4,0.8c0,0.1,0,0.3,0.1,0.4c0.1,0.1,0.2,0.2,0.4,0.3c0.1,0,0.4,0.1,0.9,0.3
		c0.7,0.2,1.3,0.4,1.6,0.5c0.3,0.1,0.5,0.3,0.7,0.7c0.2,0.3,0.3,0.5,0.3,1s-0.1,0.8-0.3,1.1c-0.2,0.3-0.5,0.7-0.9,0.8
		s-0.8,0.3-1.3,0.3c-0.8,0-1.4-0.2-1.8-0.5C190.5,11.2,190.1,10.4,190,9.8z"/>
	<path class="st0" d="M200,11.7V4.9h0.9v1c0.2-0.4,0.5-0.8,0.7-1c0.2-0.2,0.4-0.2,0.7-0.2c0.4,0,0.7,0.1,1.1,0.3l-0.4,1.1
		c-0.3-0.2-0.5-0.2-0.8-0.2c-0.2,0-0.4,0.1-0.6,0.2c-0.2,0.1-0.3,0.3-0.4,0.7c-0.1,0.4-0.2,0.9-0.2,1.3v3.6H200z"/>
	<path class="st0" d="M208.4,9.5l1.1,0.1c-0.2,0.7-0.5,1.2-1,1.6c-0.5,0.4-1.1,0.5-1.8,0.5c-0.9,0-1.6-0.3-2.3-0.9
		c-0.6-0.5-0.7-1.4-0.7-2.5s0.3-2.1,0.8-2.6s1.2-1,2.1-1c0.8,0,1.5,0.3,2,0.9s0.8,1.5,0.8,2.6c0,0.1,0,0.2,0,0.3h-4.7
		c0,0.8,0.2,1.3,0.6,1.8s0.8,0.5,1.3,0.5c0.4,0,0.7-0.1,1-0.3C208.1,10.4,208.3,10.1,208.4,9.5z M204.9,7.7h3.6c0-0.5-0.2-1-0.4-1.3
		c-0.3-0.4-0.8-0.7-1.3-0.7c-0.5,0-0.9,0.2-1.2,0.5C205.2,6.6,204.9,7.1,204.9,7.7z"/>
	<path class="st0" d="M210.5,9.8l1-0.2c0.1,0.4,0.2,0.8,0.5,1.1c0.3,0.3,0.6,0.3,1.1,0.3c0.5,0,0.8-0.1,1.1-0.3
		c0.3-0.2,0.4-0.4,0.4-0.8c0-0.2-0.1-0.4-0.3-0.7c-0.1-0.1-0.5-0.2-1.1-0.4c-0.8-0.2-1.3-0.4-1.6-0.5c-0.3-0.1-0.5-0.3-0.7-0.7
		c-0.2-0.3-0.2-0.4-0.2-0.9c0-0.3,0.1-0.5,0.2-0.9c0.1-0.3,0.3-0.4,0.5-0.7c0.2-0.1,0.4-0.2,0.7-0.3s0.6-0.1,0.9-0.1
		c0.5,0,0.9,0.1,1.3,0.2c0.4,0.1,0.6,0.3,0.8,0.7s0.3,0.7,0.4,1.1l-1,0.1c0-0.3-0.2-0.7-0.4-0.9c-0.2-0.2-0.5-0.3-1-0.3
		c-0.5,0-0.8,0.1-1,0.2c-0.2,0.1-0.4,0.5-0.4,0.8c0,0.1,0,0.3,0.1,0.4c0.1,0.1,0.2,0.2,0.4,0.3c0.1,0,0.4,0.1,0.9,0.3
		c0.7,0.2,1.3,0.4,1.6,0.5c0.3,0.1,0.5,0.3,0.7,0.7c0.2,0.3,0.3,0.5,0.3,1s-0.1,0.8-0.3,1.1c-0.2,0.3-0.5,0.7-0.9,0.8
		s-0.8,0.3-1.3,0.3c-0.8,0-1.4-0.2-1.8-0.5S210.6,10.4,210.5,9.8z"/>
	<path class="st0" d="M221.4,9.5l1.1,0.1c-0.2,0.7-0.5,1.2-1,1.6c-0.5,0.4-1.1,0.5-1.8,0.5c-0.9,0-1.6-0.3-2.3-0.9
		c-0.6-0.5-0.7-1.4-0.7-2.5s0.3-2.1,0.8-2.6s1.2-1,2.1-1c0.8,0,1.5,0.3,2,0.9s0.8,1.5,0.8,2.6c0,0.1,0,0.2,0,0.3h-4.7
		c0,0.8,0.2,1.3,0.6,1.8s0.8,0.5,1.3,0.5c0.4,0,0.7-0.1,1-0.3C221.1,10.4,221.2,10.1,221.4,9.5z M217.8,7.7h3.6c0-0.5-0.2-1-0.4-1.3
		c-0.3-0.4-0.8-0.7-1.3-0.7c-0.5,0-0.9,0.2-1.2,0.5C218.1,6.6,217.9,7.1,217.8,7.7z"/>
	<path class="st0" d="M223.9,11.7V4.9h0.9v1c0.2-0.4,0.5-0.8,0.7-1s0.4-0.2,0.7-0.2c0.4,0,0.7,0.1,1.1,0.3l-0.4,1.1
		c-0.3-0.2-0.5-0.2-0.8-0.2c-0.2,0-0.4,0.1-0.6,0.2s-0.3,0.3-0.4,0.7C225,7.2,225,7.7,225,8.2v3.5H223.9z"/>
	<path class="st0" d="M229.7,11.7l-2.5-6.8h1.1l1.3,4.1c0.1,0.4,0.3,0.9,0.4,1.4c0.1-0.3,0.2-0.8,0.4-1.3l1.4-4.2h1.1l-2.5,6.8
		H229.7z"/>
	<path class="st0" d="M238.5,9.5l1.1,0.1c-0.2,0.7-0.5,1.2-1,1.6c-0.5,0.4-1.1,0.5-1.8,0.5c-0.9,0-1.6-0.3-2.3-0.9
		c-0.6-0.5-0.7-1.4-0.7-2.5s0.3-2.1,0.8-2.6s1.2-1,2.1-1c0.8,0,1.5,0.3,2,0.9s0.8,1.5,0.8,2.6c0,0.1,0,0.2,0,0.3h-4.7
		c0,0.8,0.2,1.3,0.6,1.8s0.8,0.5,1.3,0.5c0.4,0,0.7-0.1,1-0.3C238.2,10.4,238.3,10.1,238.5,9.5z M234.9,7.7h3.6c0-0.5-0.2-1-0.4-1.3
		c-0.3-0.4-0.8-0.7-1.3-0.7s-0.9,0.2-1.2,0.5C235.2,6.6,234.9,7.1,234.9,7.7z"/>
	<path class="st0" d="M245.1,11.7v-0.9c-0.4,0.7-1,1-1.7,1c-0.5,0-1-0.1-1.4-0.4c-0.4-0.3-0.7-0.8-1-1.2s-0.3-1.2-0.3-1.9
		c0-0.7,0.1-1.3,0.3-1.9s0.5-1,0.9-1.3c0.4-0.3,0.9-0.4,1.4-0.4c0.4,0,0.7,0.1,1,0.2c0.3,0.1,0.5,0.4,0.7,0.7V2.3h1v9.5H245.1z
		 M241.7,8.3c0,0.9,0.2,1.5,0.5,2s0.7,0.7,1.2,0.7c0.5,0,0.9-0.2,1.2-0.7s0.5-1.1,0.5-1.9c0-1-0.2-1.6-0.5-2.1
		c-0.3-0.4-0.7-0.7-1.2-0.7c-0.5,0-0.9,0.2-1.2,0.7C241.9,6.8,241.7,7.4,241.7,8.3z"/>
	<path class="st0" d="M248.1,11.7v-1.3h1.2v1.3H248.1z"/>
</g>
</svg>
