<?xml version="1.0" encoding="utf-8"?>
<!-- Generator: Adobe Illustrator 20.1.0, SVG Export Plug-In . SVG Version: 6.00 Build 0)  -->
<svg version="1.1" id="Layer_1" xmlns="http://www.w3.org/2000/svg" xmlns:xlink="http://www.w3.org/1999/xlink" x="0px" y="0px"
	 viewBox="0 0 33 33" style="enable-background:new 0 0 33 33;" xml:space="preserve">
<style type="text/css">
	.st0{fill:#FFFFFF;}
</style>
<path class="st0" d="M10.9,32.3c1.2-0.9,4.6-4.5,7.8-8.4c0.4,0.1,0.8,0.2,1.3,0.2c1.4,0,1.6-0.6,1.6-1.3c0-0.6-0.1-1.1-1-1.3
	c0.8-1.1,1.7-2.2,2.4-3.2l0,0c5.7,0,9.6-0.3,9.6-1.8s-4-1.7-9.6-1.8l0,0c-0.7-1-1.5-2.1-2.3-3.1c0.8-0.2,1-0.7,1-1.3
	c0-0.7-0.2-1.3-1.6-1.3c-0.5,0-0.9,0.1-1.3,0.2c-3.3-3.9-6.6-7.5-7.8-8.4c-0.6-0.3-1.3-0.2-2-0.2l5.4,9.6l1.4,4.5l0,0L5,15.1
	l-3.3-3.2c-0.3-0.1-0.6-0.1-1.1,0c0.3,1.5,0.7,2.7,1.1,4.2c-1.3,0.4-1.3,0.9,0,1.3c-0.3,1.5-0.7,2.7-1,4.2c0.4,0.1,0.8,0,1.1,0
	L5,18.2l10.8,0.3L14.4,23L9,32.6C9.7,32.6,10.4,32.7,10.9,32.3z"/>
</svg>
