<?xml version="1.0" encoding="utf-8"?>
<!-- Generator: Adobe Illustrator 20.1.0, SVG Export Plug-In . SVG Version: 6.00 Build 0)  -->
<svg version="1.1" id="lines" xmlns="http://www.w3.org/2000/svg" xmlns:xlink="http://www.w3.org/1999/xlink" x="0px" y="0px"
	 viewBox="0 0 1317.8 609.6" style="enable-background:new 0 0 1317.8 609.6;" xml:space="preserve">
<style type="text/css">
	.st0{opacity:0.5;fill:none;stroke:#5CB7E7;stroke-linecap:round;stroke-miterlimit:10;enable-background:new    ;}
	.st1{opacity:0.5;fill:none;stroke:#FFFFFF;stroke-linecap:round;stroke-miterlimit:10;enable-background:new    ;}
	.st2{opacity:0.65;fill:none;stroke:#5CB7E7;stroke-linecap:round;stroke-miterlimit:10;enable-background:new    ;}
	.st3{opacity:0.75;fill:none;stroke:#FEBE10;stroke-linecap:round;stroke-miterlimit:10;enable-background:new    ;}
	.st4{opacity:0.75;fill:none;stroke:#FFFFFF;stroke-linecap:round;stroke-miterlimit:10;enable-background:new    ;}
	.st5{opacity:0.4;fill:none;stroke:#FFFFFF;stroke-linecap:round;stroke-miterlimit:10;enable-background:new    ;}
	.st6{opacity:0.4;fill:none;stroke:#FFFFFF;stroke-miterlimit:10;enable-background:new    ;}
	.st7{opacity:0.5;fill:none;stroke:#FEBE10;stroke-linecap:round;stroke-miterlimit:10;enable-background:new    ;}
	.st8{opacity:0.25;fill:none;stroke:#FFFFFF;stroke-linecap:round;stroke-miterlimit:10;enable-background:new    ;}
	.st9{opacity:0.5;fill:none;stroke:#5CB7E7;stroke-miterlimit:10;enable-background:new    ;}
	.st10{opacity:0.69;fill:none;stroke:#5CB7E7;stroke-linecap:round;stroke-miterlimit:10;enable-background:new    ;}
	.st11{opacity:0.3;fill:none;stroke:#FFFFFF;stroke-linecap:round;stroke-miterlimit:10;enable-background:new    ;}
	.st12{opacity:0.65;fill:none;stroke:#FEBE10;stroke-linecap:round;stroke-miterlimit:10;enable-background:new    ;}
	.st13{opacity:0.65;fill:none;stroke:#FFFFFF;stroke-linecap:round;stroke-miterlimit:10;enable-background:new    ;}
	.st14{opacity:0.75;fill:none;stroke:#5CB7E7;stroke-linecap:round;stroke-miterlimit:10;enable-background:new    ;}
	.st15{opacity:0.85;fill:none;stroke:#FFFFFF;stroke-linecap:round;stroke-miterlimit:10;enable-background:new    ;}
	.st16{opacity:0.85;fill:none;stroke:#FEBE10;stroke-linecap:round;stroke-miterlimit:10;enable-background:new    ;}
	.st17{fill:#FFFFFF;}
</style>
<title>UACOR-22947-044H-v5-2</title>
<path class="st0" d="M640.7,360.5c-0.6-2.1-0.9-4.2-0.9-6.4c-1-26.7-20.2-208.6,243.4-286.4"/>
<path class="st1" d="M640.7,360.5c0,0,50.2-201.1,353.8-292.8"/>
<path class="st2" d="M640.7,360.5c-6,3.8-12.3,7.2-18.8,10.2c-81.5,38.4-528,174.6-621.5-154.4"/>
<path class="st3" d="M640.7,360.5c-1.1-1.1-2-2.3-2.8-3.7c-14.2-23.5-189.4-311-593-158.5"/>
<path class="st4" d="M640.7,360.5c0,0-0.4-2.9-3.5-7.7C417.2,12.5,61.4,181.1,44.9,188"/>
<path class="st0" d="M640.7,360.5c-7.5-8-286-282-595.8-76.2"/>
<path class="st5" d="M640.7,360.5c3.1,3.5-254.3-292.8-595.8-43.7"/>
<path class="st6" d="M640.7,360.5c0,0-2.2-2.7-5.7-6.7c-4.3-4.8-285.2-310-590.1-78.5"/>
<path class="st7" d="M640.7,360.5C268.5,343.1,161.8,67.7,161.8,67.7"/>
<path class="st8" d="M640.7,360.5c0,0-337.6,0-433.3-292.8"/>
<path class="st4" d="M640.7,360.5c-0.3-0.1-4.7-1.5-10.9-4.1c-42.6-17.9-253.5-77.6-464.6,12.8c-5.1,2.2-119.8,52.8-120.3,53"/>
<path class="st5" d="M640.7,360.5c-1.6-0.9-3.2-2.1-4.6-3.4c-25-22.3-339-216.9-586.3,90"/>
<path class="st9" d="M640.7,360.5c-4.2,0.8-8.4,1.2-12.6,1.3c-57.5,1.2-400.5-3.6-583.2-156"/>
<path class="st10" d="M640.7,360.5c-3.3-1.6-300.9-85.9-194.2-354.7"/>
<path class="st11" d="M640.7,360.5c0,0-2.9-0.8-8.5-2.2C231.8,253.8,51.8,477.7,49.8,480.3"/>
<path class="st12" d="M640.7,360.5c0,0-336.5-71.5-580.2,177.3"/>
<path class="st13" d="M640.7,360.5c0,0-525.6,107-547.7,111.6s-48.1,9-48.1,9"/>
<path class="st14" d="M640.7,360.5c0,0-12.8,122.1-167.5,191.4c-62.2,27.9-148.5,48.9-184.4,57.2"/>
<path class="st13" d="M640.7,360.5c-3,1.8-5.8,3.8-8.4,6c-50.1,43.8-343.5,253.3-587.4,60.7"/>
<path class="st11" d="M640.7,360.5c-3.2,1.8-235.6,258.7-576.2,143.6c-8.9-3-16.8-6.4-19.7-7.8"/>
<path class="st1" d="M640.7,360.5c0,0,45.8-286.5-140.3-360"/>
<path class="st0" d="M640.7,360.5c-18.1-134.8-99.4-213-174.3-243.4C299.6,49.3,63.5,83,44.9,85.8"/>
<path class="st1" d="M640.7,360.5c-1.7,2.1-3.3,4.4-4.8,6.7c-12.9,20.3-44.6,88.4,17.9,199.1c18.8,33.3,32.3,42.2,32.7,42.8"/>
<path class="st15" d="M640.7,360.5c-2.6,5.1-4.9,10.3-6.8,15.6c-11.8,32.2-31.7,112.4,80,211c25,22.1,25.8,20.8,27.3,22.1"/>
<path class="st1" d="M640.7,360.5c-158.9,144.6,163,327.9,676.6,10.9"/>
<path class="st16" d="M640.7,360.5c-0.4,3.6-0.6,7.2-0.6,10.9c0,36.9,14.6,137.7,119,207.5c23.2,15.5,41.7,24.8,54.9,30.2"/>
<path class="st17" d="M640.7,364c2,0,3.6-1.6,3.6-3.6c0-2-1.6-3.6-3.6-3.6c-2,0-3.6,1.6-3.6,3.6v0C637.1,362.4,638.7,364,640.7,364"
	/>
</svg>
