<?xml version="1.0" encoding="utf-8"?>
<!-- Generator: Adobe Illustrator 20.1.0, SVG Export Plug-In . SVG Version: 6.00 Build 0)  -->
<svg version="1.1" id="Layer_1" xmlns="http://www.w3.org/2000/svg" xmlns:xlink="http://www.w3.org/1999/xlink" x="0px" y="0px"
	 viewBox="0 0 233.5 33" style="enable-background:new 0 0 233.5 33;" xml:space="preserve">
<style type="text/css">
	.st0{enable-background:new    ;}
	.st1{fill:#FFFFFF;}
</style>
<g id="EMPANADA" class="st0">
	<path class="st1" d="M22.4,25.6l-0.2,5.9H1.8v-30h19.8l0.1,6H8.6v6h11.1v5.2H8.6v6.8L22.4,25.6L22.4,25.6z"/>
	<path class="st1" d="M34.1,1.4l7,17.5l1.1,3h0.1l1.1-3l7-17.5h7.4v30h-6.2V16.2l0.1-3.2h-0.1l-1.1,3l-6.2,15.5h-4.5L33.7,16l-1.1-3
		h-0.1v3.2v15.2h-6v-30C26.5,1.4,34.1,1.4,34.1,1.4z"/>
	<path class="st1" d="M74.3,21.7h-4v9.8h-6.8v-30h10.8C82.6,1.4,86,4.7,86,11.7C86,18,82.6,21.7,74.3,21.7z M74.3,7.1h-4v9.2h4
		c3.3,0,4.8-0.8,4.8-4.6C79,8.1,77.8,7.1,74.3,7.1z"/>
	<path class="st1" d="M105,25.6H94.1l-1.7,5.8h-7.1l10.4-30h8l10.5,30h-7.5L105,25.6z M98.8,9.7l-3,10.3h7.6l-2.9-10.3l-0.8-3.2
		h-0.1L98.8,9.7z"/>
	<path class="st1" d="M136.8,31.4L125.2,15l-1.8-2.7h-0.1v3.2v15.8h-6v-30h5.8l10.7,15.5l1.8,2.7h0.1l-0.1-3.2V1.4h6v30H136.8z"/>
	<path class="st1" d="M164.3,25.6h-10.9l-1.7,5.8h-7.1l10.4-30h8l10.5,30H166L164.3,25.6z M158,9.7L155,20h7.6l-2.8-10.3L159,6.5
		h-0.1L158,9.7z"/>
	<path class="st1" d="M187.9,31.4h-11.3v-30h11.2c9.5,0,13.5,4.5,13.5,14.9C201.3,27.2,196.8,31.4,187.9,31.4z M187.7,7.5h-4.4v18
		h4.4c4.6,0,6.4-1.5,6.4-9.2C194.2,9.1,192.5,7.5,187.7,7.5z"/>
	<path class="st1" d="M221.9,25.6H211l-1.7,5.8h-7.1l10.4-30h8l10.5,30h-7.5L221.9,25.6z M215.6,9.7l-3,10.3h7.6l-2.8-10.3l-0.8-3.2
		h-0.1L215.6,9.7z"/>
</g>
</svg>
