<?xml version="1.0" encoding="utf-8"?>
<!-- Generator: Adobe Illustrator 20.1.0, SVG Export Plug-In . SVG Version: 6.00 Build 0)  -->
<svg version="1.1" id="Layer_1" xmlns="http://www.w3.org/2000/svg" xmlns:xlink="http://www.w3.org/1999/xlink" x="0px" y="0px"
	 viewBox="0 0 465.3 22.7" style="enable-background:new 0 0 465.3 22.7;" xml:space="preserve">
<style type="text/css">
	.st0{enable-background:new    ;}
	.st1{fill:#FFFFFF;}
</style>
<g class="st0">
	<path class="st1" d="M101,5.3l-5.5,15.2H91L85.5,5.3h4.3l2.8,9.7l0.6,2h0.1l0.5-2l3-9.7H101z"/>
	<path class="st1" d="M115.5,15.1c0,3.7-2.1,5.6-6.4,5.6s-6.4-2-6.4-5.6V5.3h3.9V15c0,1.5,0.8,2.3,2.5,2.3s2.5-0.7,2.5-2.3V5.3h3.9
		V15.1z"/>
	<path class="st1" d="M117.8,12.7c0-4.8,2.1-7.7,6.7-7.7c3.9,0,6.3,2.3,6.3,7.1c0,0.6,0,1.3-0.1,1.8h-8.8c0.2,2.5,1.4,3.5,4,3.5
		c1.4,0,2.8-0.2,4.1-0.8l0.4,3.1c-1.3,0.6-3,1-5,1C120.1,20.7,117.8,18,117.8,12.7z M127.2,11.3c0-2.2-1.1-3.1-2.7-3.1
		c-1.9,0-2.6,0.9-2.8,3.1C121.7,11.3,127.2,11.3,127.2,11.3z"/>
	<path class="st1" d="M133.4,20.5V1l3.9-0.2v19.7H133.4z"/>
	<path class="st1" d="M147.1,20.8c-4.8,0-7-2.3-7-7.9s2.2-7.9,7-7.9s6.9,2.4,6.9,7.9C154,18.5,151.9,20.8,147.1,20.8z M147.1,17.6
		c2.1,0,2.9-1,2.9-4.7s-0.8-4.7-2.9-4.7c-2.2,0-2.9,1-2.9,4.7C144.1,16.7,144.9,17.6,147.1,17.6z"/>
	<path class="st1" d="M167.3,20.8c-1.8,0-3.5-0.4-4.8-1.1l0.4-3.2c1.3,0.7,3,1.1,4.3,1.1c1.6,0,2.2-0.6,2.2-1.5c0-2.4-7-1-7-6.3
		c0-2.7,1.9-4.7,5.8-4.7c1.5,0,3,0.3,4.3,0.8l-0.3,3.2c-1.3-0.5-2.9-0.8-4.1-0.8c-1.3,0-2,0.5-2,1.3c0,2.3,6.9,0.9,6.9,6.2
		C173.1,18.7,171.4,20.8,167.3,20.8z"/>
	<path class="st1" d="M177.9,3.7c-1.5,0-2.2-0.4-2.2-1.7c0-1.1,0.7-1.7,2.2-1.7s2.2,0.6,2.2,1.7S179.5,3.7,177.9,3.7z M175.9,20.5
		V5.4l4-0.2v15.3H175.9z"/>
	<path class="st1" d="M192.4,20.5v-9.7c0-1.7-0.9-2.4-2.5-2.4c-1,0-2,0.4-2.6,1.2v10.9h-3.9V5.4l2.8-0.2l0.6,1.3
		c1.1-1,2.6-1.5,4.2-1.5c3.2,0,5.2,2,5.2,5.8v9.7H192.4z"/>
	<path class="st1" d="M205.2,12.7c0-4.8,2.1-7.7,6.7-7.7c3.9,0,6.3,2.3,6.3,7.1c0,0.6,0,1.3-0.1,1.8h-8.8c0.2,2.5,1.4,3.5,4,3.5
		c1.4,0,2.8-0.2,4.1-0.8l0.4,3.1c-1.3,0.6-3,1-5,1C207.5,20.7,205.2,18,205.2,12.7z M214.6,11.3c0-2.2-1.1-3.1-2.7-3.1
		c-1.9,0-2.6,0.9-2.8,3.1C209.1,11.3,214.6,11.3,214.6,11.3z"/>
	<path class="st1" d="M224.7,20.8c-1.8,0-3.5-0.4-4.8-1.1l0.4-3.2c1.3,0.7,3,1.1,4.3,1.1c1.6,0,2.2-0.6,2.2-1.5c0-2.4-7-1-7-6.3
		c0-2.7,1.9-4.7,5.8-4.7c1.5,0,3,0.3,4.3,0.8l-0.3,3.2c-1.3-0.5-2.9-0.8-4.1-0.8c-1.3,0-2,0.5-2,1.3c0,2.3,6.9,0.9,6.9,6.2
		C230.5,18.7,228.8,20.8,224.7,20.8z"/>
	<path class="st1" d="M242.5,9c-0.8-0.3-1.7-0.5-2.6-0.5c-2.8,0-3.8,1.2-3.8,4.4c0,3.3,1.3,4.5,3.7,4.5c1,0,2-0.2,2.8-0.6l0.3,3
		c-0.9,0.6-2.3,0.9-3.9,0.9c-4.5,0-6.9-2.6-6.9-7.9c0-5,2.1-7.9,6.9-7.9c1.3,0,2.7,0.3,3.7,0.7L242.5,9z"/>
	<path class="st1" d="M253.3,19L253.3,19c-1,1.1-2.5,1.7-4.2,1.7c-2.9,0-4.7-1.6-4.7-5c0-2.8,2-4.7,5.4-4.7c1.1,0,2.1,0.2,2.9,0.4
		v-0.9c0-1.5-0.8-2.2-2.9-2.2c-1.7,0-2.8,0.3-4.2,0.8L245.3,6c1.5-0.7,3.3-1,5.2-1c4.5,0,6,1.9,6,6.1v9.4h-3L253.3,19z M252.8,14
		c-0.4-0.1-1.1-0.3-2.2-0.3c-1.7,0-2.5,0.7-2.5,2c0,1.5,0.9,2,2.2,2s2.5-0.8,2.5-1.8V14z"/>
	<path class="st1" d="M259.9,20.5V1l3.9-0.2v19.7H259.9z"/>
	<path class="st1" d="M275.5,19L275.5,19c-1,1.1-2.5,1.7-4.2,1.7c-2.9,0-4.7-1.6-4.7-5c0-2.8,2-4.7,5.4-4.7c1.1,0,2.1,0.2,2.9,0.4
		v-0.9c0-1.5-0.8-2.2-2.9-2.2c-1.7,0-2.8,0.3-4.2,0.8L267.5,6c1.5-0.7,3.3-1,5.2-1c4.5,0,6,1.9,6,6.1v9.4h-3L275.5,19z M274.9,14
		c-0.4-0.1-1.1-0.3-2.2-0.3c-1.7,0-2.5,0.7-2.5,2c0,1.5,0.9,2,2.2,2c1.3,0,2.5-0.8,2.5-1.8V14z"/>
	<path class="st1" d="M286,20.8c-1.8,0-3.5-0.4-4.8-1.1l0.4-3.2c1.3,0.7,3,1.1,4.3,1.1c1.6,0,2.2-0.6,2.2-1.5c0-2.4-7-1-7-6.3
		c0-2.7,1.9-4.7,5.8-4.7c1.5,0,3,0.3,4.3,0.8l-0.3,3.2c-1.3-0.5-2.9-0.8-4.1-0.8c-1.3,0-2,0.5-2,1.3c0,2.3,6.9,0.9,6.9,6.2
		C291.8,18.7,290.1,20.8,286,20.8z"/>
	<path class="st1" d="M309.1,19L309.1,19c-1,1.1-2.5,1.7-4.2,1.7c-2.9,0-4.7-1.6-4.7-5c0-2.8,2-4.7,5.4-4.7c1.1,0,2.1,0.2,2.9,0.4
		v-0.9c0-1.5-0.8-2.2-2.9-2.2c-1.7,0-2.8,0.3-4.2,0.8L301.1,6c1.5-0.7,3.3-1,5.2-1c4.5,0,6,1.9,6,6.1v9.4h-3L309.1,19z M308.5,14
		c-0.4-0.1-1.1-0.3-2.2-0.3c-1.7,0-2.5,0.7-2.5,2c0,1.5,0.9,2,2.2,2c1.3,0,2.5-0.8,2.5-1.8V14z"/>
	<path class="st1" d="M334.4,20.5l-7.3-10.2L326,8.6h-0.1v2v9.9h-3.8V1.7h3.6l6.7,9.7l1.1,1.7h0.1l-0.1-2V1.8h3.7v18.7H334.4z"/>
	<path class="st1" d="M353.3,15.1c0,3.7-2.1,5.6-6.4,5.6s-6.4-2-6.4-5.6V5.3h3.9V15c0,1.5,0.8,2.3,2.5,2.3s2.5-0.7,2.5-2.3V5.3h3.9
		V15.1z"/>
	<path class="st1" d="M355.6,12.7c0-4.8,2.1-7.7,6.7-7.7c3.9,0,6.3,2.3,6.3,7.1c0,0.6,0,1.3-0.1,1.8h-8.8c0.2,2.5,1.4,3.5,4,3.5
		c1.4,0,2.8-0.2,4.1-0.8l0.4,3.1c-1.3,0.6-3,1-5,1C357.9,20.7,355.6,18,355.6,12.7z M365,11.3c0-2.2-1.1-3.1-2.7-3.1
		c-1.9,0-2.6,0.9-2.8,3.1C359.5,11.3,365,11.3,365,11.3z"/>
	<path class="st1" d="M384.8,5.3l-5.5,15.2h-4.5l-5.5-15.2h4.3l2.9,9.7l0.5,2h0.1l0.5-2l3-9.7H384.8z"/>
	<path class="st1" d="M394.5,19L394.5,19c-1,1.1-2.5,1.7-4.2,1.7c-2.9,0-4.7-1.6-4.7-5c0-2.8,2-4.7,5.4-4.7c1.1,0,2.1,0.2,2.9,0.4
		v-0.9c0-1.5-0.8-2.2-2.9-2.2c-1.7,0-2.8,0.3-4.2,0.8L386.5,6c1.5-0.7,3.3-1,5.2-1c4.5,0,6,1.9,6,6.1v9.4h-3L394.5,19z M393.9,14
		c-0.4-0.1-1.1-0.3-2.2-0.3c-1.7,0-2.5,0.7-2.5,2c0,1.5,0.9,2,2.2,2c1.3,0,2.5-0.8,2.5-1.8V14z"/>
	<path class="st1" d="M410.7,1.7l3.2,7.1l0.8,1.9h0.1l0.8-1.9l3-7.1h4.6l-6.4,12.8v6h-4.3v-6L406,1.7H410.7z"/>
	<path class="st1" d="M429.1,20.8c-4.8,0-7-2.3-7-7.9s2.2-7.9,7-7.9s6.9,2.4,6.9,7.9C436,18.5,433.9,20.8,429.1,20.8z M429.1,17.6
		c2.1,0,2.9-1,2.9-4.7s-0.8-4.7-2.9-4.7c-2.2,0-2.9,1-2.9,4.7C426.2,16.7,427,17.6,429.1,17.6z"/>
	<path class="st1" d="M438.4,20.5V5.4l3.1-0.2l0.4,2.5h0.1c1-1.8,2.4-2.7,4.2-2.7c0.7,0,1.3,0.1,1.7,0.2L447.7,9
		c-0.5-0.1-1.1-0.2-1.7-0.2c-2,0-3.5,1.5-3.5,4v7.6h-4.1V20.5z"/>
	<path class="st1" d="M453.9,10.8h2l3.2-5.5h4.3l-4.1,6.9l4.3,8.3h-4.4L456,14h-2v6.5h-4V1l3.9-0.2V10.8z"/>
</g>
</svg>
