<?xml version="1.0" encoding="utf-8"?>
<!-- Generator: Adobe Illustrator 20.1.0, SVG Export Plug-In . SVG Version: 6.00 Build 0)  -->
<svg version="1.1" id="Layer_1" xmlns="http://www.w3.org/2000/svg" xmlns:xlink="http://www.w3.org/1999/xlink" x="0px" y="0px"
	 viewBox="0 0 80.3 20" style="enable-background:new 0 0 80.3 20;" xml:space="preserve">
<style type="text/css">
	.st0{enable-background:new    ;}
	.st1{fill:#FFFFFF;}
</style>
<g id="BAGEL" class="st0">
	<path class="st1" d="M8.5,19.3H0.8V0.6h7.6c4.1,0,6.1,1.8,6.1,4.8c0,2.1-1,3.4-2.5,4l0,0c2.1,0.6,3.2,2,3.2,4.4
		C15.2,17.3,13.2,19.3,8.5,19.3z M8.4,11.3H4.8v4.5h3.7c1.7,0,2.4-0.5,2.4-2.3C11,12,10.3,11.3,8.4,11.3z M8.2,4.2H4.8v4.1h3.5
		c1.5,0,2.1-0.6,2.1-2.1C10.5,4.7,9.8,4.2,8.2,4.2z"/>
	<path class="st1" d="M28.3,15.7h-6.8l-1,3.6H16l6.5-18.7h5L34,19.3h-4.7L28.3,15.7z M24.4,5.8l-1.9,6.4h4.8l-1.8-6.4l-0.5-2h-0.1
		L24.4,5.8z"/>
	<path class="st1" d="M49.1,18.6c-1.4,0.6-3.6,1-5.6,1c-6.4,0-8.9-3.3-8.9-9.7c0-6.5,2.7-9.7,9-9.7c1.8,0,3.7,0.3,5.2,0.8l-0.4,3.6
		c-1.3-0.5-3-0.8-4.5-0.8C40.2,4,39,5.3,39,10s1.1,6,4.4,6c0.7,0,1.4-0.1,2-0.2V9.3h3.7C49.1,9.3,49.1,18.6,49.1,18.6z"/>
	<path class="st1" d="M65,15.7l-0.1,3.7H52.1V0.6h12.3l0.1,3.7h-8.2V8h6.9v3.3h-6.9v4.3L65,15.7L65,15.7z"/>
	<path class="st1" d="M79.5,15.5l-0.1,3.8H67.6V0.6h4.2v14.9H79.5z"/>
</g>
</svg>
