<?xml version="1.0" encoding="utf-8"?>
<!-- Generator: Adobe Illustrator 20.1.0, SVG Export Plug-In . SVG Version: 6.00 Build 0)  -->
<svg version="1.1" id="Layer_1" xmlns="http://www.w3.org/2000/svg" xmlns:xlink="http://www.w3.org/1999/xlink" x="0px" y="0px"
	 viewBox="0 0 77.5 19.2" style="enable-background:new 0 0 77.5 19.2;" xml:space="preserve">
<style type="text/css">
	.st0{enable-background:new    ;}
	.st1{fill:#E9AF24;}
</style>
<g class="st0">
	<path class="st1" d="M12.5,18.9L5.2,8.6L4.1,6.9H4v2v9.9H0.3V0h3.6l6.7,9.7l1.1,1.7l0,0v-2V0.1h3.7v18.8H12.5z"/>
	<path class="st1" d="M31.4,13.5c0,3.7-2.1,5.6-6.4,5.6s-6.4-2-6.4-5.6V3.7h3.9v9.7c0,1.5,0.8,2.3,2.5,2.3s2.5-0.7,2.5-2.3V3.7h3.9
		V13.5z"/>
	<path class="st1" d="M33.7,11.1c0-4.8,2.1-7.7,6.7-7.7c3.9,0,6.3,2.3,6.3,7.1c0,0.6,0,1.3-0.1,1.8h-8.8c0.2,2.5,1.4,3.5,4,3.5
		c1.4,0,2.8-0.2,4.1-0.8l0.4,3.1c-1.3,0.6-3,1-5,1C36,19.1,33.7,16.4,33.7,11.1z M43,9.7c-0.1-2.2-1.1-3.1-2.7-3.1
		c-1.9,0-2.6,0.9-2.8,3.1C37.5,9.7,43,9.7,43,9.7z"/>
	<path class="st1" d="M62.9,3.7l-5.5,15.2h-4.5L47.4,3.7h4.3l2.8,9.7l0.6,2h0.1l0.5-2l3-9.7H62.9z"/>
	<path class="st1" d="M70.6,19.2c-4.8,0-7-2.3-7-7.9s2.2-7.9,7-7.9s6.9,2.4,6.9,7.9C77.6,16.9,75.5,19.2,70.6,19.2z M70.6,16
		c2.1,0,2.9-1,2.9-4.7s-0.8-4.7-2.9-4.7c-2.2,0-2.9,1-2.9,4.7C67.7,15.1,68.5,16,70.6,16z"/>
</g>
</svg>
