<svg id="Layer_1" data-name="Layer 1" xmlns="http://www.w3.org/2000/svg" xmlns:xlink="http://www.w3.org/1999/xlink" viewBox="0 0 138.39 38.75"><defs><style>.cls-1{fill:none;}.cls-2{clip-path:url(#clip-path);}.cls-3{fill:#fff;}.cls-4{fill:#231f20;}.cls-5{fill:#939598;}</style><clipPath id="clip-path" transform="translate(-497.45 -166.18)"><rect class="cls-1" x="485.59" y="154.46" width="162.12" height="56.42"/></clipPath></defs><title>UA_logo</title><g class="cls-2"><path class="cls-3" d="M626.05,198.12a12.73,12.73,0,0,1,2.54-2.62l-0.51,2Z" transform="translate(-497.45 -166.18)"/><path class="cls-4" d="M629.59,199a12.74,12.74,0,0,1-1.8-.31,12.54,12.54,0,0,1-1.74-.57l2-.58Z" transform="translate(-497.45 -166.18)"/><path class="cls-5" d="M628.59,195.49a13,13,0,0,1,.63,1.72,12.81,12.81,0,0,1,.38,1.79l-1.52-1.46Z" transform="translate(-497.45 -166.18)"/><path class="cls-5" d="M625.33,202.32a12.87,12.87,0,0,1-1.71-3.22l1.79,1.12Z" transform="translate(-497.45 -166.18)"/><path class="cls-4" d="M627.27,199.23a12.61,12.61,0,0,1-.86,1.61,12.44,12.44,0,0,1-1.08,1.48l0.07-2.11Z" transform="translate(-497.45 -166.18)"/><path class="cls-3" d="M623.62,199.1a12.69,12.69,0,0,1,1.82-.07,13,13,0,0,1,1.82.19l-1.86,1Z" transform="translate(-497.45 -166.18)"/><path class="cls-4" d="M629.11,204.3a12.75,12.75,0,0,1-3.59.63l1.61-1.35Z" transform="translate(-497.45 -166.18)"/><path class="cls-5" d="M626.76,201.51a12.59,12.59,0,0,1,1.27,1.31,12.44,12.44,0,0,1,1.07,1.48l-2-.72Z" transform="translate(-497.45 -166.18)"/><path class="cls-3" d="M625.52,204.93a12.82,12.82,0,0,1,1.25-3.43l0.37,2.07Z" transform="translate(-497.45 -166.18)"/><path class="cls-5" d="M632.16,201.32a13.07,13.07,0,0,1-.12,1.82,12.74,12.74,0,0,1-.38,1.79l-0.79-2Z" transform="translate(-497.45 -166.18)"/><path class="cls-3" d="M628.78,202.69a12.76,12.76,0,0,1,3.38-1.37l-1.3,1.66Z" transform="translate(-497.45 -166.18)"/><path class="cls-4" d="M631.65,204.94a12.66,12.66,0,0,1-1.52-1,12.92,12.92,0,0,1-1.36-1.23l2.09,0.29Z" transform="translate(-497.45 -166.18)"/><path class="cls-5" d="M630.27,197.5a12.87,12.87,0,0,1,3.28,1.6l-2.1.15Z" transform="translate(-497.45 -166.18)"/><path class="cls-3" d="M630.52,201.14a12.58,12.58,0,0,1-.26-1.81,13,13,0,0,1,0-1.83l1.18,1.75Z" transform="translate(-497.45 -166.18)"/><path class="cls-4" d="M633.55,199.1a12.8,12.8,0,0,1-3,2l0.92-1.89Z" transform="translate(-497.45 -166.18)"/><polygon class="cls-3" points="98.1 32.58 98.67 32.58 98.67 36.48 98.27 36.48 98.27 33.11 98.26 33.11 96.55 36.48 96.17 36.48 94.46 33.11 94.45 33.11 94.45 36.48 94.05 36.48 94.05 32.58 94.64 32.58 96.37 35.97 98.1 32.58"/><path class="cls-3" d="M537.49,201.38a1.19,1.19,0,0,0,.34.89,2.12,2.12,0,0,0,1.5.45c0.37,0,1.65-.08,1.65-1.14s-0.85-1-1.61-1.1h0c-0.78-.08-1.35-0.16-1.35-0.69a0.61,0.61,0,0,1,.41-0.58,2.11,2.11,0,0,1,.91-0.15,1.41,1.41,0,0,1,1,.29,0.7,0.7,0,0,1,.18.49h0.39a1.08,1.08,0,0,0-.27-0.75,1.86,1.86,0,0,0-1.28-.4,2,2,0,0,0-1.44.45,0.87,0.87,0,0,0-.27.63c0,0.92.93,1,1.66,1.06a3.1,3.1,0,0,1,.91.17,0.58,0.58,0,0,1,.38.58,0.62,0.62,0,0,1-.18.45,1.71,1.71,0,0,1-1.09.31,1.69,1.69,0,0,1-1.18-.34,0.86,0.86,0,0,1-.25-0.65h-0.38Zm4.11-2.6v0.38h1.5v3.5h0.4v-3.5H545v-0.38h-3.4Zm5.29,0-1.78,3.88h0.44l0.55-1.2h2l0.55,1.2H549l-1.78-3.88H546.9Zm0.18,0.54,0.81,1.77h-1.62l0.81-1.77m3.09-.54v3.88h0.4V201h1.57c0.69,0,.85.14,0.87,0.74a1.67,1.67,0,0,0,.13.92l0,0h0.42l-0.07-.12a2.77,2.77,0,0,1-.09-1,0.81,0.81,0,0,0-.55-0.79,1,1,0,0,0,.61-0.91c0-.72-0.44-1.07-1.34-1.07h-2Zm2,0.38c0.61,0,.91.22,0.91,0.68s-0.32.76-1,.76h-1.54v-1.43h1.6Zm5.92-.38-1.78,3.88h0.45l0.55-1.2h2l0.55,1.2h0.44l-1.78-3.88h-0.38Zm0.19,0.54,0.81,1.77h-1.62l0.81-1.77m13.93-.54-1.78,3.88h0.44l0.55-1.2h2l0.55,1.2h0.44l-1.78-3.88H572.2Zm0.19,0.54,0.81,1.77h-1.62l0.81-1.77m-10.9-.54v3.88h2.8v-0.38H561.9v-3.5h-0.4Zm3.66,0v3.88h2.79v-0.38h-2.39v-3.5h-0.4Zm3.63,3.88h0.4v-3.88h-0.4v3.88Zm9.88-3.88V202c-0.25-.3-2.81-3.24-2.81-3.24h-0.41v3.88h0.4v-3.24c0.25,0.3,2.81,3.24,2.81,3.24h0.4v-3.88h-0.4Zm7,0v3.88h3.13v-0.38H586v-1.44h2.59v-0.37H586v-1.31h2.7v-0.38h-3.1Zm-5.32,1.94a1.94,1.94,0,0,0,2.1,2,1.87,1.87,0,0,0,2-1.57v-0.09H584v0.07a1.45,1.45,0,0,1-1.54,1.21,1.56,1.56,0,0,1-1.69-1.64,1.6,1.6,0,0,1,1.7-1.65,1.38,1.38,0,0,1,1.47,1l0,0.06h0.42l0-.1a1.74,1.74,0,0,0-1.88-1.31,2,2,0,0,0-2.12,2" transform="translate(-497.45 -166.18)"/><path class="cls-3" d="M533.3,198.78h-0.37l-1.78,3.88h0.44l0.55-1.2h2l0.55,1.2h0.45Zm-1,2.31,0.8-1.77,0.81,1.77h-1.62Z" transform="translate(-497.45 -166.18)"/><polygon class="cls-3" points="99.92 32.6 99.92 36.48 103.06 36.48 103.06 36.1 100.33 36.1 100.33 34.66 102.92 34.66 102.92 34.29 100.33 34.29 100.33 32.98 103.02 32.98 103.02 32.6 99.92 32.6"/><polygon class="cls-3" points="108.33 32.58 108.9 32.58 108.9 36.48 108.5 36.48 108.5 33.12 108.49 33.12 106.77 36.48 106.4 36.48 104.69 33.11 104.68 33.11 104.68 36.48 104.28 36.48 104.28 32.58 104.86 32.58 106.6 35.97 108.33 32.58"/><path class="cls-3" d="M608,199.14h1.73a0.62,0.62,0,0,1,.75.63,0.71,0.71,0,0,1-.89.69H608v-1.32Zm-0.4,3.52h2.15a1.14,1.14,0,0,0,1.28-1.11,0.91,0.91,0,0,0-.82-0.95h0a0.82,0.82,0,0,0,.66-0.84,0.93,0.93,0,0,0-1.08-1h-2.2v3.88Zm0.4-1.83h1.79a0.68,0.68,0,0,1,.82.72,0.76,0.76,0,0,1-.91.74H608v-1.46Z" transform="translate(-497.45 -166.18)"/><polygon class="cls-3" points="114.86 32.6 114.86 36.48 117.99 36.48 117.99 36.09 115.26 36.09 115.26 34.66 117.85 34.66 117.85 34.28 115.26 34.28 115.26 32.98 117.96 32.98 117.96 32.6 114.86 32.6"/><path class="cls-3" d="M620,202.53a2.75,2.75,0,0,1-.09-1,0.81,0.81,0,0,0-.55-0.79,1,1,0,0,0,.61-0.91c0-.72-0.44-1.07-1.34-1.07h-2v3.88h0.4V201h1.57c0.69,0,.85.14,0.87,0.74a1.67,1.67,0,0,0,.13.92l0,0h0.42Zm-1.4-1.94h-1.54v-1.43h1.6c0.61,0,.91.22,0.91,0.68a0.77,0.77,0,0,1-1,.76" transform="translate(-497.45 -166.18)"/><polygon class="cls-3" points="137.43 33.6 137.32 33.6 137.32 32.86 137.12 32.86 137.12 32.77 137.64 32.77 137.64 32.86 137.43 32.86 137.43 33.6"/><polygon class="cls-3" points="137.71 32.77 137.88 32.77 138.05 33.42 138.05 33.42 138.22 32.77 138.39 32.77 138.39 33.6 138.29 33.6 138.29 32.87 138.29 32.87 138.1 33.6 138 33.6 137.82 32.87 137.81 32.87 137.81 33.6 137.71 33.6 137.71 32.77"/><polygon class="cls-3" points="30.47 6.34 30.47 13.76 23.29 6.34 20.24 6.34 20.24 18.71 23.52 18.71 23.52 10.97 31.12 18.71 33.75 18.71 33.75 6.34 30.47 6.34"/><polygon class="cls-3" points="41.55 9.18 41.55 6.34 45.13 6.34 45.13 18.71 41.55 18.71 41.55 9.18"/><polygon class="cls-3" points="73.57 13.76 73.57 16.02 81.67 16.02 81.67 18.71 70.07 18.71 70.07 6.34 81.61 6.34 81.61 9.05 73.57 9.05 73.57 11.25 80.38 11.25 80.38 13.76 73.57 13.76"/><polygon class="cls-3" points="59.41 9.15 59.41 18.71 55.89 18.71 55.89 9.15 51.35 9.15 51.35 6.34 63.94 6.34 63.94 9.15 59.41 9.15"/><path class="cls-3" d="M589.37,175.3H592c2.89,0,4.06,1.21,4.06,3.41s-1.21,3.4-4.06,3.4h-2.64V175.3Zm-3.51-2.78V184.9h6.23c5.13,0,7.64-2.32,7.64-6.2,0-3.67-2.27-6.16-7.64-6.17h-6.23Z" transform="translate(-497.45 -166.18)"/><path class="cls-3" d="M511,179.44c0,3.78-2.35,5.68-6.73,5.68s-6.78-1.89-6.78-5.66v-6.93H501v6.94c0,1.89,1.07,2.83,3.28,2.82s3.21-.93,3.21-2.8v-7H511v6.91Z" transform="translate(-497.45 -166.18)"/><path class="cls-3" d="M633,188.78a1,1,0,1,1,1,1,1,1,0,0,1-1-1m1.81,0a0.83,0.83,0,1,0-.83.83,0.83,0.83,0,0,0,.83-0.83m-0.37.53h-0.18l-0.32-.49h-0.18v0.49h-0.15v-1.07h0.46a0.31,0.31,0,0,1,.38.28,0.29,0.29,0,0,1-.34.29Zm-0.5-.64c0.13,0,.37,0,0.37-0.15s-0.14-.13-0.26-0.13h-0.28v0.28h0.18Z" transform="translate(-497.45 -166.18)"/><path class="cls-3" d="M608.57,166.18h0v3.28l0.94-.23a15.47,15.47,0,0,1,17.75,20.51h4.88V166.18H608.57Z" transform="translate(-497.45 -166.18)"/><path class="cls-3" d="M608.57,189.62v0.13h2.58l-0.51-.92a19,19,0,0,1-2.07.79" transform="translate(-497.45 -166.18)"/><path class="cls-3" d="M622.91,179.13a7.75,7.75,0,0,0-1.76-7.2,5.82,5.82,0,0,0-2.76-1.61,4.09,4.09,0,0,1,.63.54l0.54,0.07a5.68,5.68,0,0,1,1.49,1.15,3.61,3.61,0,0,1,.46.56c-0.45-.13-0.88-0.28-1.34-0.38a4.83,4.83,0,0,1,.38.77c0.52,0.15,1,.33,1.53.51a6.41,6.41,0,0,1,.67,2c-0.58-.29-1.16-0.57-1.76-0.81a5.69,5.69,0,0,1,0,1,16.31,16.31,0,0,1,1.84,1,7.86,7.86,0,0,1-.17,1.87,16.07,16.07,0,0,0-1.89-1.18,8.39,8.39,0,0,1-.54,1.72,20.5,20.5,0,0,1,1.88,1.39,11.28,11.28,0,0,1-.68,1.48c-0.61-.52-1.22-1-1.86-1.49a11.05,11.05,0,0,1-1.31,2c0.61,0.57,1.2,1.12,1.79,1.73a9.72,9.72,0,0,1-1,1.22c-0.56-.6-1.13-1.22-1.72-1.79a18.85,18.85,0,0,1-2,2,18.53,18.53,0,0,1,1.56,1.93c-0.36.3-.69,0.59-1,0.86l-1.51-1.95a21.28,21.28,0,0,1-2.92,1.87l0.79,1.32h2.46c3.75-2.57,7.15-6.37,8.19-10.62" transform="translate(-497.45 -166.18)"/><path class="cls-3" d="M608.95,176.81l-0.38-.24v1a10.39,10.39,0,0,0,1.17-1.32,4.54,4.54,0,0,0,.88-4.21,2.63,2.63,0,0,0-2.05-1.44v0.45l0.25-.18a2.1,2.1,0,0,1,.61.26c-0.29.17-.59,0.34-0.87,0.53V172c0.36-.22.79-0.48,1.12-0.65a1.43,1.43,0,0,1,.35.34c-0.49.19-1.17,0.53-1.48,0.69v0.29a12.26,12.26,0,0,1,1.7-.7,1.54,1.54,0,0,1,.18.44,11.85,11.85,0,0,0-1.88.59v0.27a13.43,13.43,0,0,1,2-.51,2.75,2.75,0,0,1,0,.55,17.54,17.54,0,0,0-2,.3v0.31a15.42,15.42,0,0,1,2-.13,3.1,3.1,0,0,1-.17.62,17.33,17.33,0,0,0-1.8-.06v0.41a12.35,12.35,0,0,1,1.57.25,3.71,3.71,0,0,1-.28.55,9.17,9.17,0,0,0-1.29-.35V176a7.26,7.26,0,0,1,.75.38,2.79,2.79,0,0,1-.36.43" transform="translate(-497.45 -166.18)"/><path class="cls-3" d="M609.12,185.84a4,4,0,0,1-.56.25v3.22a18.62,18.62,0,0,0,7.87-5,15,15,0,0,0,4.2-7.56,6.11,6.11,0,0,0-2.21-6,7.05,7.05,0,0,0-3.93-1.45c0.16,0.05.32,0.13,0.48,0.2l0.09,0a7.15,7.15,0,0,1,2.26.77c-0.37,0-.76,0-1.13,0a6.23,6.23,0,0,1,.46.45c0.5,0,1,0,1.48,0a4.51,4.51,0,0,1,1.23,1.3,15.62,15.62,0,0,0-2-.3c0.09,0.2.18,0.41,0.26,0.63a22.13,22.13,0,0,1,2.25.44,5.4,5.4,0,0,1,.5,1.59,18.68,18.68,0,0,0-2.49-.74c0,0.27,0,.56,0,0.84a18.77,18.77,0,0,1,2.56.92,6.46,6.46,0,0,1-.18,1.61,21.12,21.12,0,0,0-2.57-1.13,11.25,11.25,0,0,1-.43,1.45,27.86,27.86,0,0,1,2.5,1.41,7.07,7.07,0,0,1-.63,1.32c-0.79-.54-1.58-1.06-2.41-1.52a9.61,9.61,0,0,1-1.06,1.72c0.74,0.58,1.49,1.18,2.2,1.82a8.46,8.46,0,0,1-.9,1.12c-0.52-.54-1.38-1.32-2.1-1.92a14,14,0,0,1-1.71,1.79c0.46,0.49,1.83,2.14,1.83,2.14a8.19,8.19,0,0,1-1,.81s-1.4-1.79-1.74-2.22a14.86,14.86,0,0,1-2.45,1.63c0.38,0.65,1.34,2.42,1.34,2.42a4.5,4.5,0,0,1-.76.38c-0.45-.75-1-1.83-1.28-2.44" transform="translate(-497.45 -166.18)"/><path class="cls-3" d="M608.57,169.85V170a6.29,6.29,0,0,1,1.26-.15,6.92,6.92,0,0,0-.79.57,1.82,1.82,0,0,1,.31.1,11,11,0,0,1,1.08-.69,3.92,3.92,0,0,1,1.28.22,8.63,8.63,0,0,0-1.7.82,1,1,0,0,1,.23.18,13,13,0,0,1,2-.83,2.76,2.76,0,0,1,.82.52,16,16,0,0,0-2.4.73,1.57,1.57,0,0,1,.2.31,20.31,20.31,0,0,1,2.58-.7,2.41,2.41,0,0,1,.45.7,18.42,18.42,0,0,0-2.83.48,2.34,2.34,0,0,1,.1.37,20.15,20.15,0,0,1,2.92-.35,3.07,3.07,0,0,1,.14.9,19.85,19.85,0,0,0-3,.07c0,0.12,0,.35,0,0.5a21,21,0,0,1,3,.11,7.64,7.64,0,0,1-.2,1,18.22,18.22,0,0,0-3-.41,3,3,0,0,1-.22.65,18,18,0,0,1,2.84.77,9.25,9.25,0,0,1-.44.88,21,21,0,0,0-2.73-1,5.27,5.27,0,0,1-.58.91,28.16,28.16,0,0,1,2.45,1.4,7.65,7.65,0,0,1-.6.72c-0.74-.57-1.47-1.11-2.27-1.62a8.42,8.42,0,0,1-.87.86v0.09l1.84,2a7.37,7.37,0,0,1-.63.51L608.57,179v2.73a13.71,13.71,0,0,0,4.82-4.8c0.87-1.53,1.52-3.59.68-5.35a3.26,3.26,0,0,0-.55-0.77,5.2,5.2,0,0,0-5-1" transform="translate(-497.45 -166.18)"/><path class="cls-3" d="M610.67,169.34l0.52,0.06,0.07,0a7.28,7.28,0,0,1,2,.11,7.35,7.35,0,0,0-.82.28,2.55,2.55,0,0,1,.45.22,10.37,10.37,0,0,1,1.12-.3,5.53,5.53,0,0,1,1.28.66,14.4,14.4,0,0,0-1.62.26,1.75,1.75,0,0,1,.32.37,14.51,14.51,0,0,1,1.86-.2,3.2,3.2,0,0,1,.76,1,14.18,14.18,0,0,0-2.18,0,2.46,2.46,0,0,1,.17.51,16.62,16.62,0,0,1,2.32.09,4,4,0,0,1,.28,1.21,18.7,18.7,0,0,0-2.48-.33,5.35,5.35,0,0,1,0,.69,17.37,17.37,0,0,1,2.55.46,6.13,6.13,0,0,1-.18,1.34,20.83,20.83,0,0,0-2.58-.72,5.85,5.85,0,0,1-.36,1.06,20.18,20.18,0,0,1,2.53,1.07,7.27,7.27,0,0,1-.51,1.14,26.25,26.25,0,0,0-2.49-1.26,11.66,11.66,0,0,1-.88,1.35c0.81,0.5,1.58,1,2.34,1.6-0.23.33-.56,0.74-0.75,1-0.73-.61-2.23-1.8-2.23-1.8a8.21,8.21,0,0,1-1.38,1.36c0.62,0.63,1.42,1.53,1.93,2.15a5,5,0,0,1-.82.7c-0.61-.75-1.35-1.7-1.77-2.29a8.9,8.9,0,0,1-1.58,1V183l1,1.95a4.32,4.32,0,0,1-.68.35l-0.29-.57v1c3.76-1.67,7.58-5.35,8.69-9.35a6.33,6.33,0,0,0-.19-4.45,4.68,4.68,0,0,0-2-2.07,6.91,6.91,0,0,0-4.38-.54" transform="translate(-497.45 -166.18)"/><path class="cls-3" d="M615.26,189.75h1.51l-0.49-.75c-0.27.19-.61,0.49-1,0.75" transform="translate(-497.45 -166.18)"/><path class="cls-3" d="M621.3,187.44a15.48,15.48,0,0,0,3.55-7,8.45,8.45,0,0,0-2-7.38l-0.5-.19a9.26,9.26,0,0,1,.47.89l0.65,0.3a8.12,8.12,0,0,1,1,2.42c-0.36-.23-0.73-0.46-1.1-0.67a9.25,9.25,0,0,1,.08,1.16,13.19,13.19,0,0,1,1.25,1,9.9,9.9,0,0,1-.12,2.12,10.94,10.94,0,0,0-1.35-1.12,9.93,9.93,0,0,1-.6,2,13,13,0,0,1,1.41,1.33,10.3,10.3,0,0,1-.7,1.58,19.6,19.6,0,0,0-1.42-1.41,19,19,0,0,1-1.43,2.24c0.48,0.5.94,1,1.38,1.54a14.26,14.26,0,0,1-1,1.27c-0.45-.52-0.87-1.05-1.34-1.56a17.86,17.86,0,0,1-2.16,2.19c0.5,0.61,1.26,1.62,1.26,1.62H619a25.52,25.52,0,0,0,2.26-2.31" transform="translate(-497.45 -166.18)"/><path class="cls-3" d="M626.9,189.15l-0.12-.25-0.41.85h0.56a15.25,15.25,0,0,0,1-4.32,32.9,32.9,0,0,1-1,3.72" transform="translate(-497.45 -166.18)"/><path class="cls-3" d="M627.82,182.44h0c-0.05.41-.08,0.82-0.16,1.21l-0.13-.18a12.65,12.65,0,0,1-.63,2.39l0.2,0.56a16.59,16.59,0,0,1-.64,1.79,3.15,3.15,0,0,0-.29-0.6,20.58,20.58,0,0,1-1.22,2.13H626a18.35,18.35,0,0,0,1.39-3.61,10.61,10.61,0,0,0,.4-3.7" transform="translate(-497.45 -166.18)"/><path class="cls-3" d="M624.58,174.83a3.52,3.52,0,0,0-.53-0.54v0a8.82,8.82,0,0,1,1.73,3.15h0l-0.61-.46a10.15,10.15,0,0,1,.15,1.39,5.34,5.34,0,0,1,.84.79,11,11,0,0,1-.1,2.42,9.09,9.09,0,0,0-.94-1,10.26,10.26,0,0,1-.57,2.1,10.42,10.42,0,0,1,1,1.29,9.62,9.62,0,0,1-.7,1.66c-0.34-.44-0.58-0.8-1-1.32a19.35,19.35,0,0,1-1.54,2.41c0.39,0.46.75,0.94,1.09,1.43a15.49,15.49,0,0,1-1,1.31c-0.36-.48-0.73-1-1.1-1.45a17.37,17.37,0,0,1-1.66,1.76h2.89a16,16,0,0,0,3.77-7.26,8.93,8.93,0,0,0-1.64-7.66" transform="translate(-497.45 -166.18)"/><path class="cls-3" d="M626.59,178.14l-0.07-.07a13.2,13.2,0,0,1,.23,1.64,5.8,5.8,0,0,1,.47.63,10.42,10.42,0,0,1-.19,2.42l-0.44-.54a13,13,0,0,1-.6,2.23l0.49,0.84a12.12,12.12,0,0,1-.69,1.76c-0.18-.3-0.35-0.62-0.54-0.88a20.38,20.38,0,0,1-1.53,2.48l0.68,1.1h0.16a15.45,15.45,0,0,0,2.85-8.16,7.46,7.46,0,0,0-.82-3.45" transform="translate(-497.45 -166.18)"/></g></svg>